<svg xmlns="http://www.w3.org/2000/svg" xmlns:xlink="http://www.w3.org/1999/xlink" width="397" zoomAndPan="magnify" viewBox="0 0 297.75 419.249996" height="559" preserveAspectRatio="xMidYMid meet" version="1.0"><defs><clipPath id="a9808bd562"><path d="M 0.910156 0.628906 L 199.09375 0.628906 L 199.09375 70.25 L 0.910156 70.25 Z M 0.910156 0.628906 " clip-rule="nonzero"/></clipPath><clipPath id="7b80a9a889"><path d="M 18 50 L 173.539062 50 L 173.539062 81.429688 L 18 81.429688 Z M 18 50 " clip-rule="nonzero"/></clipPath><clipPath id="a837cd135d"><path d="M 0.441406 42 L 199 42 L 199 66 L 0.441406 66 Z M 0.441406 42 " clip-rule="nonzero"/></clipPath><clipPath id="53f622f4e1"><path d="M 0.441406 46 L 175 46 L 175 77 L 0.441406 77 Z M 0.441406 46 " clip-rule="nonzero"/></clipPath><clipPath id="f770ee6931"><rect x="0" width="200" y="0" height="83"/></clipPath></defs><g transform="matrix(1, 0, 0, 1, 39, 148)"><g clip-path="url(#f770ee6931)"><g clip-path="url(#a9808bd562)"><path fill="#fbc12d" d="M 198.835938 59.632812 C 198.835938 59.632812 196.332031 68.011719 188.101562 69.441406 C 179.871094 70.863281 143.722656 69.441406 143.722656 69.441406 L 39.402344 69.617188 L 12.203125 69.972656 C 12.203125 69.972656 4.507812 70.332031 3.257812 67.476562 C 2.003906 64.625 1.289062 60.347656 1.289062 60.347656 C 1.464844 59.8125 -1.398438 49.46875 6.296875 41.089844 C 13.992188 32.710938 29.382812 31.105469 32.960938 30.394531 C 36.539062 29.679688 61.410156 27.359375 64.453125 25.9375 C 67.496094 24.507812 87.535156 11.851562 87.535156 11.851562 C 87.535156 11.851562 91.234375 9.316406 102.429688 8.566406 C 102.605469 6.976562 103.253906 1.921875 104.453125 1.164062 C 105.878906 0.261719 110.222656 0.777344 110.222656 0.777344 C 110.222656 0.777344 110.804688 0.839844 111.582031 3.167969 C 112.171875 4.925781 112.722656 7.347656 112.957031 8.421875 C 119.964844 8.648438 128.730469 9.476562 139.605469 11.316406 C 147.480469 12.5625 160.902344 30.035156 160.902344 30.035156 C 160.902344 30.035156 161.796875 31.996094 169.847656 32.886719 C 177.902344 33.78125 194.003906 35.207031 197.046875 40.199219 C 200.089844 45.191406 198.835938 59.632812 198.835938 59.632812 " fill-opacity="1" fill-rule="nonzero"/></g><g clip-path="url(#7b80a9a889)"><path fill="#3e3d3f" d="M 157.5 50.140625 C 148.828125 50.140625 141.796875 57.144531 141.796875 65.785156 C 141.796875 74.425781 148.828125 81.429688 157.5 81.429688 C 166.171875 81.429688 173.203125 74.425781 173.203125 65.785156 C 173.203125 57.144531 166.171875 50.140625 157.5 50.140625 Z M 49.46875 65.785156 C 49.46875 74.425781 42.4375 81.429688 33.765625 81.429688 C 25.09375 81.429688 18.0625 74.425781 18.0625 65.785156 C 18.0625 57.144531 25.09375 50.140625 33.765625 50.140625 C 42.4375 50.140625 49.46875 57.144531 49.46875 65.785156 " fill-opacity="1" fill-rule="nonzero"/></g><path fill="#3e3d3f" d="M 133.722656 60.707031 L 135.703125 60.707031 L 135.703125 58.734375 L 133.722656 58.734375 Z M 139.660156 58.730469 L 141.640625 58.730469 L 141.640625 56.757812 L 139.660156 56.757812 Z M 137.679688 60.707031 L 139.65625 60.707031 L 139.65625 58.734375 L 137.679688 58.734375 Z M 135.714844 58.730469 L 137.691406 58.730469 L 137.691406 56.757812 L 135.714844 56.757812 Z M 131.757812 58.730469 L 133.738281 58.730469 L 133.738281 56.757812 L 131.757812 56.757812 Z M 129.773438 60.707031 L 131.753906 60.707031 L 131.753906 58.734375 L 129.773438 58.734375 Z M 127.808594 58.730469 L 129.789062 58.730469 L 129.789062 56.757812 L 127.808594 56.757812 Z M 125.828125 60.707031 L 127.804688 60.707031 L 127.804688 58.734375 L 125.828125 58.734375 Z M 123.863281 58.730469 L 125.839844 58.730469 L 125.839844 56.757812 L 123.863281 56.757812 Z M 121.878906 60.707031 L 123.859375 60.707031 L 123.859375 58.734375 L 121.878906 58.734375 Z M 119.914062 58.730469 L 121.894531 58.730469 L 121.894531 56.757812 L 119.914062 56.757812 Z M 117.929688 60.707031 L 119.910156 60.707031 L 119.910156 58.734375 L 117.929688 58.734375 Z M 115.964844 58.730469 L 117.945312 58.730469 L 117.945312 56.757812 L 115.964844 56.757812 Z M 113.980469 60.707031 L 115.960938 60.707031 L 115.960938 58.734375 L 113.980469 58.734375 Z M 112.015625 58.730469 L 113.996094 58.730469 L 113.996094 56.757812 L 112.015625 56.757812 Z M 110.03125 60.707031 L 112.011719 60.707031 L 112.011719 58.734375 L 110.03125 58.734375 Z M 108.066406 58.730469 L 110.046875 58.730469 L 110.046875 56.757812 L 108.066406 56.757812 Z M 106.085938 60.707031 L 108.066406 60.707031 L 108.066406 58.734375 L 106.085938 58.734375 Z M 104.121094 58.730469 L 106.097656 58.730469 L 106.097656 56.757812 L 104.121094 56.757812 Z M 102.136719 60.707031 L 104.117188 60.707031 L 104.117188 58.734375 L 102.136719 58.734375 Z M 100.171875 58.730469 L 102.152344 58.730469 L 102.152344 56.757812 L 100.171875 56.757812 Z M 98.1875 60.707031 L 100.167969 60.707031 L 100.167969 58.734375 L 98.1875 58.734375 Z M 96.222656 58.730469 L 98.203125 58.730469 L 98.203125 56.757812 L 96.222656 56.757812 Z M 94.242188 60.707031 L 96.21875 60.707031 L 96.21875 58.734375 L 94.242188 58.734375 Z M 92.277344 58.730469 L 94.253906 58.730469 L 94.253906 56.757812 L 92.277344 56.757812 Z M 90.292969 60.707031 L 92.269531 60.707031 L 92.269531 58.734375 L 90.292969 58.734375 Z M 88.328125 58.730469 L 90.304688 58.730469 L 90.304688 56.757812 L 88.328125 56.757812 Z M 86.363281 60.707031 L 88.34375 60.707031 L 88.34375 58.734375 L 86.363281 58.734375 Z M 84.398438 58.730469 L 86.375 58.730469 L 86.375 56.757812 L 84.398438 56.757812 Z M 82.414062 60.707031 L 84.390625 60.707031 L 84.390625 58.734375 L 82.414062 58.734375 Z M 80.449219 58.730469 L 82.429688 58.730469 L 82.429688 56.757812 L 80.449219 56.757812 Z M 78.464844 60.707031 L 80.445312 60.707031 L 80.445312 58.734375 L 78.464844 58.734375 Z M 76.5 58.730469 L 78.480469 58.730469 L 78.480469 56.757812 L 76.5 56.757812 Z M 74.519531 60.707031 L 76.496094 60.707031 L 76.496094 58.734375 L 74.519531 58.734375 Z M 72.554688 58.730469 L 74.53125 58.730469 L 74.53125 56.757812 L 72.554688 56.757812 Z M 70.570312 60.707031 L 72.546875 60.707031 L 72.546875 58.734375 L 70.570312 58.734375 Z M 68.605469 58.730469 L 70.582031 58.730469 L 70.582031 56.757812 L 68.605469 56.757812 Z M 66.621094 60.707031 L 68.601562 60.707031 L 68.601562 58.734375 L 66.621094 58.734375 Z M 64.65625 58.730469 L 66.636719 58.730469 L 66.636719 56.757812 L 64.65625 56.757812 Z M 62.671875 60.707031 L 64.652344 60.707031 L 64.652344 58.734375 L 62.671875 58.734375 Z M 60.707031 58.730469 L 62.6875 58.730469 L 62.6875 56.757812 L 60.707031 56.757812 Z M 58.726562 60.707031 L 60.703125 60.707031 L 60.703125 58.734375 L 58.726562 58.734375 Z M 56.757812 58.730469 L 58.738281 58.730469 L 58.738281 56.757812 L 56.757812 56.757812 Z M 54.777344 60.707031 L 56.757812 60.707031 L 56.757812 58.734375 L 54.777344 58.734375 Z M 52.8125 58.730469 L 54.792969 58.730469 L 54.792969 56.757812 L 52.8125 56.757812 Z M 50.828125 60.707031 L 52.808594 60.707031 L 52.808594 58.734375 L 50.828125 58.734375 Z M 48.863281 56.757812 L 50.84375 56.757812 L 50.84375 58.730469 L 48.863281 58.730469 L 48.863281 56.757812 " fill-opacity="1" fill-rule="nonzero"/><g clip-path="url(#a837cd135d)"><path fill="#f0f0ef" d="M 6.09375 54.652344 C 7.695312 53.980469 6.9375 53.058594 8.203125 49.617188 C 9.464844 46.175781 14.9375 45.886719 17.84375 44.710938 C 20.75 43.535156 17.632812 42.949219 17.632812 42.949219 C 17.632812 42.949219 11.023438 42.066406 4.621094 43.199219 C 0.789062 48.148438 0.917969 55.53125 0.917969 55.53125 C 0.917969 55.53125 4.496094 55.324219 6.09375 54.652344 Z M 198.378906 60.917969 L 187.617188 61.019531 C 186.410156 61.019531 185.429688 62 185.429688 63.199219 C 185.429688 64.398438 186.410156 65.378906 187.617188 65.378906 L 195.351562 65.378906 C 197.4375 63.136719 198.378906 60.917969 198.378906 60.917969 Z M 1.589844 61.019531 L 10.378906 61.019531 C 11.582031 61.019531 12.566406 62 12.566406 63.199219 C 12.566406 64.398438 11.582031 65.378906 10.378906 65.378906 L 2.644531 65.378906 L 1.589844 61.019531 " fill-opacity="1" fill-rule="nonzero"/></g><g clip-path="url(#53f622f4e1)"><path fill="#d9d4e2" d="M 2.734375 46.453125 C 0.835938 50.855469 0.917969 55.53125 0.917969 55.53125 C 0.917969 55.53125 4.496094 55.324219 6.09375 54.652344 C 7.695312 53.980469 6.9375 53.058594 8.203125 49.617188 Z M 144.503906 69.234375 C 142.238281 60.664062 148.367188 51.878906 157.5 51.878906 C 166.65625 51.878906 172.777344 60.695312 170.488281 69.273438 C 169.820312 71.769531 173.703125 72.835938 174.367188 70.335938 C 177.328125 59.246094 169.269531 47.886719 157.5 47.867188 C 145.742188 47.84375 137.699219 59.25 140.625 70.300781 C 141.285156 72.792969 145.167969 71.738281 144.503906 69.234375 Z M 20.769531 69.234375 C 18.503906 60.664062 24.632812 51.878906 33.765625 51.878906 C 42.917969 51.878906 49.039062 60.695312 46.75 69.273438 C 46.082031 71.769531 49.964844 72.835938 50.632812 70.335938 C 53.59375 59.246094 45.53125 47.886719 33.765625 47.867188 C 22.007812 47.84375 13.964844 59.25 16.886719 70.300781 C 17.546875 72.792969 21.429688 71.738281 20.769531 69.234375 Z M 158.082031 63.257812 C 156.386719 63.257812 155.011719 64.628906 155.011719 66.320312 C 155.011719 68.007812 156.386719 69.378906 158.082031 69.378906 C 159.78125 69.378906 161.15625 68.007812 161.15625 66.320312 C 161.15625 64.628906 159.78125 63.257812 158.082031 63.257812 Z M 157.769531 56.152344 C 152.144531 56.152344 147.566406 60.714844 147.566406 66.320312 C 147.566406 71.925781 152.144531 76.484375 157.769531 76.484375 C 163.394531 76.484375 167.96875 71.925781 167.96875 66.320312 C 167.96875 60.714844 163.394531 56.152344 157.769531 56.152344 Z M 157.769531 76.886719 C 151.921875 76.886719 147.167969 72.144531 147.167969 66.320312 C 147.167969 60.492188 151.921875 55.753906 157.769531 55.753906 C 163.617188 55.753906 168.375 60.492188 168.375 66.320312 C 168.375 72.144531 163.617188 76.886719 157.769531 76.886719 Z M 34.347656 63.257812 C 32.652344 63.257812 31.273438 64.628906 31.273438 66.320312 C 31.273438 68.007812 32.652344 69.378906 34.347656 69.378906 C 36.042969 69.378906 37.417969 68.007812 37.417969 66.320312 C 37.417969 64.628906 36.042969 63.257812 34.347656 63.257812 Z M 34.03125 56.152344 C 28.410156 56.152344 23.832031 60.714844 23.832031 66.320312 C 23.832031 71.925781 28.410156 76.484375 34.03125 76.484375 C 39.660156 76.484375 44.234375 71.925781 44.234375 66.320312 C 44.234375 60.714844 39.660156 56.152344 34.03125 56.152344 Z M 34.03125 76.886719 C 28.1875 76.886719 23.429688 72.144531 23.429688 66.320312 C 23.429688 60.492188 28.1875 55.753906 34.03125 55.753906 C 39.878906 55.753906 44.636719 60.492188 44.636719 66.320312 C 44.636719 72.144531 39.878906 76.886719 34.03125 76.886719 " fill-opacity="1" fill-rule="nonzero"/></g><path fill="#f4af1e" d="M 121.546875 39.308594 L 115.640625 39.308594 L 115.640625 40.777344 L 121.546875 40.777344 Z M 109.1875 40.777344 L 103.285156 40.777344 L 103.285156 39.308594 L 109.1875 39.308594 L 109.1875 40.777344 " fill-opacity="1" fill-rule="nonzero"/><path fill="#f0f0ef" d="M 66.355469 31.300781 C 66.355469 31.300781 86 13.972656 96.164062 11.613281 C 103.84375 9.136719 134.101562 10.148438 140.425781 15.550781 C 146.746094 20.949219 149.796875 30.289062 150.925781 32.425781 C 152.054688 34.5625 148.894531 34.113281 148.894531 34.113281 L 67.9375 34.113281 C 62.742188 34.5625 66.355469 31.300781 66.355469 31.300781 " fill-opacity="1" fill-rule="nonzero"/><path fill="#f4af1e" d="M 113.328125 38.46875 C 114.410156 35.777344 114.421875 34.671875 114.421875 34.640625 L 115.761719 10.4375 L 115.230469 10.410156 L 113.882812 34.625 C 113.882812 34.636719 113.863281 35.703125 112.832031 38.273438 C 111.753906 40.957031 110.578125 65.65625 110.53125 66.707031 L 111.066406 66.734375 C 111.078125 66.476562 112.285156 41.074219 113.328125 38.46875 Z M 137.464844 48.144531 C 139.328125 45.222656 144.691406 41.949219 148.238281 39.785156 C 150.277344 38.546875 151.351562 37.875 151.675781 37.464844 C 152.714844 36.132812 151.738281 34.429688 151.695312 34.359375 L 151.230469 34.628906 C 151.238281 34.644531 152.070312 36.089844 151.25 37.136719 C 150.972656 37.492188 149.578125 38.34375 147.960938 39.332031 C 144.371094 41.519531 138.941406 44.832031 137.011719 47.855469 C 134.214844 52.230469 127.136719 66.859375 127.066406 67.007812 L 127.546875 67.238281 C 127.617188 67.089844 134.6875 52.492188 137.464844 48.144531 Z M 70.769531 66.453125 C 68.335938 62.339844 65.761719 48.800781 64.527344 42.296875 C 64.199219 40.550781 63.957031 39.289062 63.820312 38.710938 C 63.191406 36.070312 64.429688 34.40625 64.441406 34.390625 L 64.015625 34.0625 C 63.957031 34.136719 62.605469 35.9375 63.296875 38.835938 C 63.433594 39.402344 63.671875 40.65625 64 42.394531 C 65.242188 48.929688 67.824219 62.53125 70.304688 66.722656 Z M 139.992188 65.785156 L 51.324219 65.785156 L 51.324219 67.789062 L 139.992188 67.789062 Z M 38.597656 32.621094 C 31.082031 32.574219 22.492188 35.964844 16.71875 37.972656 C 10.949219 39.976562 9.339844 38.375 9.339844 38.375 C 17.492188 32.339844 29.808594 31.023438 32.960938 30.394531 C 36.539062 29.679688 61.410156 27.359375 64.453125 25.9375 C 64.453125 25.9375 59.933594 32.753906 38.597656 32.621094 " fill-opacity="1" fill-rule="nonzero"/><path fill="#3e3d3f" d="M 109.136719 1.394531 C 109.109375 1.46875 108.542969 7.429688 108.542969 7.429688 C 108.542969 7.429688 108.570312 7.851562 108.078125 7.898438 C 107.589844 7.949219 103.488281 7.898438 103.488281 7.898438 C 103.488281 7.898438 102.972656 7.824219 103.128906 7.15625 C 103.285156 6.488281 103.589844 3.222656 104.367188 1.988281 C 104.804688 0.75 109.136719 1.394531 109.136719 1.394531 Z M 150.605469 33.359375 C 150.433594 33.601562 149.605469 33.671875 148.96875 33.585938 L 148.929688 33.578125 L 142.570312 33.578125 L 142.570312 18.722656 C 146.101562 22.78125 148.296875 27.832031 149.578125 30.792969 C 149.941406 31.628906 150.226562 32.289062 150.453125 32.703125 C 150.613281 33.007812 150.671875 33.257812 150.605469 33.359375 Z M 66.707031 31.75 C 66.902344 31.578125 86.367188 14.761719 96.328125 12.480469 C 98.816406 11.691406 104.023438 11.269531 110.042969 11.269531 C 110.964844 11.269531 111.910156 11.28125 112.863281 11.300781 L 112.433594 33.578125 L 73.378906 33.578125 C 73.375 33.199219 73.367188 32.886719 73.355469 32.6875 C 73.289062 31.617188 72.550781 31.484375 72.550781 31.484375 C 72.550781 31.484375 70.605469 31.285156 67.785156 31.683594 C 67.027344 31.792969 66.46875 32.09375 66.050781 32.46875 C 66.230469 32.226562 66.457031 31.972656 66.707031 31.75 Z M 139.746094 33.578125 L 116.84375 33.578125 L 117.488281 11.472656 C 126.796875 11.976562 136.210938 13.429688 139.746094 16 Z M 151.398438 32.199219 C 151.195312 31.824219 150.917969 31.179688 150.566406 30.367188 C 148.96875 26.683594 145.996094 19.828125 140.769531 15.4375 C 134.148438 9.871094 103.582031 9.058594 96.042969 11.449219 C 85.867188 13.777344 66.808594 30.242188 65.996094 30.945312 C 65.695312 31.214844 64.207031 32.617188 64.695312 33.742188 C 64.765625 33.914062 64.878906 34.050781 65.011719 34.167969 C 64.851562 34.695312 64.832031 35.09375 64.832031 35.09375 C 64.566406 38.839844 70.136719 39.644531 71.878906 39.308594 C 73.625 38.972656 73.355469 38.105469 73.355469 38.105469 C 73.355469 38.105469 73.382812 36.238281 73.386719 34.648438 L 148.855469 34.648438 C 149.265625 34.703125 150.871094 34.847656 151.484375 33.972656 C 151.808594 33.507812 151.78125 32.910156 151.398438 32.199219 " fill-opacity="1" fill-rule="nonzero"/><path fill="#c74137" d="M 197.882812 42.082031 C 197.882812 42.082031 198.929688 45.496094 198.980469 49.097656 C 195.761719 50.257812 193.5 49.164062 193.5 49.164062 C 193.5 49.164062 190.074219 45.921875 190.589844 44.59375 C 191.101562 43.261719 197.882812 42.082031 197.882812 42.082031 " fill-opacity="1" fill-rule="nonzero"/></g></g></svg>